<svg xmlns="http://www.w3.org/2000/svg" width="273" height="181" viewBox="0 0 273 181"><rect width="100%" height="100%" fill="#DDDDDD"/><path fill="#999999" d="M64.13 99.625H71q.74 0 1.17.41.44.42.44 1.1v2.74H54.26v-1.52q0-.46.19-.97t.62-.91l8.12-8.14q1.02-1.04 1.82-1.98.81-.95 1.34-1.87.54-.93.83-1.88.28-.95.28-2.01 0-.96-.27-1.69-.28-.73-.79-1.23t-1.22-.75-1.6-.25q-.82 0-1.51.23t-1.23.65-.91.97q-.37.56-.55 1.22-.32.85-.81 1.13-.5.28-1.45.13l-2.4-.43q.28-1.92 1.07-3.37.8-1.45 1.99-2.43 1.19-.97 2.74-1.46 1.54-.49 3.32-.49 1.85 0 3.38.55 1.54.54 2.63 1.54t1.7 2.41q.61 1.4.61 3.12 0 1.48-.43 2.74-.44 1.26-1.17 2.41t-1.71 2.22-2.05 2.18l-6.03 6.16q.87-.26 1.73-.4.86-.13 1.63-.13m11.9-22.5h18.48v1.98q0 .89-.18 1.43-.19.55-.37.92l-10.14 20.87q-.32.64-.89 1.1-.57.45-1.54.45h-3.31l10.34-20.44q.36-.63.7-1.16t.77-1.01H77.08q-.42 0-.74-.31-.31-.32-.31-.74zm24.14 7.88-2.4-.43q.27-1.92 1.07-3.37t1.99-2.43q1.19-.97 2.74-1.46 1.54-.49 3.32-.49 1.85 0 3.34.53t2.54 1.46q1.05.94 1.62 2.19.56 1.26.56 2.72 0 1.28-.28 2.25-.29.97-.83 1.69-.53.73-1.33 1.23-.79.49-1.79.83 2.4.76 3.59 2.31 1.18 1.55 1.18 3.9 0 2-.74 3.54-.74 1.53-2 2.58-1.26 1.04-2.91 1.58-1.66.54-3.51.54-2.01 0-3.51-.47-1.5-.46-2.61-1.37-1.11-.9-1.89-2.22-.78-1.31-1.33-3.03l2.02-.83q.79-.33 1.49-.18.69.16 1 .75.34.65.73 1.28.4.63.96 1.12.55.49 1.3.79.75.31 1.79.31 1.16 0 2.03-.38t1.45-.99q.59-.61.87-1.36.29-.75.29-1.51 0-.96-.2-1.75-.21-.78-.85-1.34-.65-.55-1.86-.87-1.22-.31-3.25-.31v-3.26q1.68-.02 2.79-.31 1.11-.3 1.77-.83.66-.52.92-1.26.25-.74.25-1.63 0-1.89-1.05-2.87t-2.81-.98q-.82 0-1.5.23t-1.23.65-.92.97q-.37.56-.55 1.22-.32.85-.82 1.13-.51.28-1.44.13m45.51 12.75-2.42 2.38-6.27-6.27-6.33 6.31-2.42-2.39 6.32-6.34-6.03-6.03 2.41-2.41 6.03 6.03 5.99-5.99 2.44 2.4-6.01 6.02zm25.33 2.7h4.81v3.42h-14.8v-3.42h5.42v-15.6q0-.92.05-1.9l-3.84 3.22q-.34.25-.66.32-.32.06-.61.01-.29-.06-.51-.2-.22-.13-.33-.3l-1.45-1.98 8.16-6.94h3.76zm17.85.15q1.13 0 1.98-.33.85-.32 1.43-.9.59-.57.88-1.36.3-.8.3-1.72 0-2.21-1.22-3.33-1.22-1.13-3.37-1.13t-3.37 1.13q-1.22 1.12-1.22 3.33 0 .92.3 1.72.29.79.88 1.36.58.58 1.43.9.85.33 1.98.33m0-20.34q-1.02 0-1.76.32-.74.31-1.23.84t-.72 1.21q-.23.69-.23 1.45 0 .79.19 1.54.2.75.66 1.33t1.22.94q.76.35 1.87.35t1.87-.35q.76-.36 1.22-.94t.66-1.33q.19-.75.19-1.54 0-.76-.24-1.45-.24-.68-.72-1.21t-1.22-.84q-.74-.32-1.76-.32m4.51 9.66q2.45.8 3.61 2.43 1.17 1.64 1.17 4.01 0 1.78-.68 3.22-.67 1.44-1.89 2.46t-2.94 1.57q-1.71.56-3.78.56t-3.78-.56q-1.71-.55-2.93-1.57-1.23-1.02-1.9-2.46-.68-1.44-.68-3.22 0-2.37 1.17-4.01 1.16-1.63 3.61-2.43-1.95-.81-2.92-2.31t-.97-3.61q0-1.52.62-2.83t1.73-2.28q1.11-.98 2.66-1.52 1.54-.55 3.39-.55t3.4.55q1.54.54 2.65 1.52 1.11.97 1.73 2.28t.62 2.83q0 2.11-.97 3.61t-2.92 2.31m20.56 10.53h4.81v3.42h-14.8v-3.42h5.42v-15.6q0-.92.05-1.9l-3.84 3.22q-.34.25-.66.32-.32.06-.61.01-.29-.06-.51-.2-.22-.13-.33-.3l-1.45-1.98 8.16-6.94h3.76z"/></svg>