<svg xmlns="http://www.w3.org/2000/svg" width="391" height="260" viewBox="0 0 391 260"><rect width="100%" height="100%" fill="#DDDDDD"/><path fill="#999999" d="m83.28 122.275-3.38-.6q.39-2.7 1.51-4.74t2.8-3.41q1.67-1.36 3.84-2.05t4.67-.69q2.6 0 4.69.74 2.1.74 3.58 2.05 1.48 1.32 2.27 3.08.8 1.77.8 3.83 0 1.79-.41 3.15-.4 1.37-1.15 2.38-.76 1.02-1.88 1.72-1.11.7-2.52 1.17 3.38 1.07 5.05 3.25 1.66 2.18 1.66 5.49 0 2.8-1.04 4.96t-2.81 3.63-4.09 2.22q-2.33.76-4.93.76-2.83 0-4.94-.65t-3.67-1.93q-1.56-1.27-2.65-3.12-1.09-1.84-1.87-4.26l2.83-1.17q1.12-.47 2.1-.25.97.22 1.41 1.05.47.91 1.03 1.8.56.88 1.34 1.57t1.83 1.12q1.06.43 2.51.43 1.64 0 2.86-.54 1.22-.53 2.04-1.39.82-.85 1.23-1.91.4-1.05.4-2.12 0-1.35-.29-2.45-.28-1.11-1.19-1.89t-2.62-1.22q-1.7-.44-4.56-.44v-4.58q2.37-.02 3.93-.44t2.48-1.16 1.29-1.78q.36-1.04.36-2.29 0-2.65-1.48-4.03-1.48-1.37-3.95-1.37-1.15 0-2.11.32-.96.33-1.73.91-.77.59-1.29 1.37t-.78 1.71q-.44 1.2-1.15 1.59-.72.39-2.02.18m32.55.21q0 3.14 1.63 4.79 1.62 1.66 4.61 1.66 1.56 0 2.79-.5 1.22-.49 2.05-1.35t1.26-2.03.43-2.52q0-1.53-.47-2.74t-1.32-2.04q-.86-.84-2.05-1.28-1.18-.44-2.58-.44-1.46 0-2.63.48t-2 1.34-1.27 2.04q-.45 1.18-.45 2.59m-3.14 26.31 11.67-14.59q.44-.54.83-1.06t.76-1.04q-1.3.83-2.86 1.26t-3.28.43q-1.95 0-3.82-.68-1.87-.67-3.33-2.04-1.45-1.36-2.35-3.38-.9-2.01-.9-4.72 0-2.52.94-4.73.93-2.21 2.62-3.87 1.69-1.67 4.06-2.63t5.23-.96q2.88 0 5.18.91t3.93 2.55q1.62 1.63 2.5 3.92.87 2.29.87 5.02 0 1.74-.3 3.3t-.85 3q-.54 1.45-1.32 2.83-.78 1.37-1.75 2.73l-8.6 12.27q-.44.62-1.33 1.05-.88.43-2 .43zm44.87-4.81h6.76v4.81h-20.8v-4.81h7.62v-21.92q0-1.3.08-2.68l-5.41 4.53q-.47.36-.92.45-.46.09-.86.02-.4-.08-.71-.28-.32-.19-.47-.43l-2.03-2.78 11.47-9.75h5.27zm50-3.8-3.4 3.36-8.82-8.82-8.89 8.87-3.41-3.35 8.9-8.92-8.48-8.48 3.38-3.38 8.48 8.48 8.42-8.43 3.43 3.38-8.45 8.45zm31.31 2.63h9.64q1.04 0 1.65.58.61.59.61 1.55v3.85h-25.79v-2.13q0-.65.28-1.37.27-.71.87-1.28l11.41-11.44q1.43-1.46 2.56-2.79 1.13-1.32 1.89-2.62.75-1.3 1.15-2.64.41-1.34.41-2.82 0-1.35-.39-2.38t-1.11-1.73q-.71-.7-1.71-1.05-1.01-.35-2.25-.35-1.15 0-2.12.32-.98.33-1.73.91-.76.59-1.28 1.37t-.78 1.71q-.44 1.2-1.14 1.59t-2.03.18l-3.38-.6q.39-2.7 1.51-4.74t2.8-3.41q1.67-1.36 3.84-2.05t4.67-.69q2.6 0 4.76.76 2.16.77 3.69 2.18 1.53 1.4 2.39 3.38.86 1.97.86 4.39 0 2.08-.61 3.85t-1.64 3.38-2.4 3.12q-1.38 1.51-2.89 3.07l-8.48 8.65q1.23-.36 2.44-.56 1.2-.19 2.3-.19m39.02-31.62-11.15 13.65-1.3 1.62q1.09-.55 2.35-.85t2.72-.3q2.13 0 4.15.7 2.01.71 3.54 2.12 1.54 1.42 2.47 3.53.94 2.1.94 4.91 0 2.63-.96 4.93t-2.71 4.01q-1.74 1.72-4.19 2.71-2.46.99-5.43.99-3.01 0-5.4-.97-2.4-.96-4.09-2.69t-2.58-4.16q-.9-2.43-.9-5.39 0-2.65 1.08-5.45 1.08-2.79 3.34-5.81l8.97-12.04q.47-.62 1.37-1.06.89-.45 2.06-.45zm-9.7 32.76q1.54 0 2.83-.52 1.28-.52 2.21-1.45.92-.94 1.44-2.2t.52-2.74q0-1.61-.5-2.9-.49-1.29-1.4-2.19-.91-.89-2.18-1.36-1.28-.47-2.81-.47-1.54 0-2.78.52-1.25.52-2.14 1.44-.88.93-1.37 2.19-.5 1.26-.5 2.72 0 1.56.43 2.84.43 1.29 1.28 2.2.84.91 2.09 1.42 1.25.5 2.88.5m44-13.96q0 4.92-1.06 8.54-1.05 3.63-2.91 6-1.86 2.36-4.39 3.52-2.54 1.16-5.48 1.16-2.93 0-5.44-1.16t-4.36-3.52q-1.84-2.37-2.88-6-1.04-3.62-1.04-8.54 0-4.94 1.04-8.55 1.04-3.62 2.88-5.98 1.85-2.37 4.36-3.53 2.51-1.15 5.44-1.15 2.94 0 5.48 1.15 2.53 1.16 4.39 3.53 1.86 2.36 2.91 5.98 1.06 3.61 1.06 8.55m-6.63 0q0-4.08-.6-6.76t-1.6-4.26q-1-1.59-2.3-2.23-1.3-.63-2.71-.63-1.37 0-2.66.63-1.29.64-2.28 2.23-.98 1.58-1.57 4.26-.58 2.68-.58 6.76t.58 6.76q.59 2.68 1.57 4.27.99 1.58 2.28 2.22t2.66.64q1.41 0 2.71-.64t2.3-2.22q1-1.59 1.6-4.27t.6-6.76"/></svg>